# xmcd
#
# Track frame offsets:
#	150
#	15045
#	30329
#	46560
#	60142
#	74294
#	90604
#	108563
#	122753
#	137334
#	155484
#	170711
#	185909
#	199995
#
# Disc length: 2880 seconds
#
# Revision: 1
# Processed by: cddbd v1.5.2PL0 Copyright (c) Steve Scherf et al.
# Submitted via: audiograbber 1.83.01
#
DISCID=ad0b3e0e
DTITLE=Blandade - Mr Music Hits 2012-07
DYEAR=2012
DGENRE=Pop
TTITLE0=Ola - I'm In Love
TTITLE1=Alina Devecerski - Flytta på dej
TTITLE2=Westlife - Beautiful World
TTITLE3=Ivi Adamou - La La Love
TTITLE4=Youngblood - American Girlfriend
TTITLE5=KT Tunstall - (Still A) Weirdo
TTITLE6=Foster The People - Call It What You Want
TTITLE7=Nabiha - Never Played The Bass
TTITLE8=Veronica Maggio - Mitt hjärta blöder
TTITLE9=The Shins - Simple Song
TTITLE10=Morten Harket - Scared Of Heights
TTITLE11=Caotico - Sunrise Confessions
TTITLE12=Ninni Bautista - Living In The House Of Love
TTITLE13=David Lindgren - Rendezvous
EXTD=
EXTT0=
EXTT1=
EXTT2=
EXTT3=
EXTT4=
EXTT5=
EXTT6=
EXTT7=
EXTT8=
EXTT9=
EXTT10=
EXTT11=
EXTT12=
EXTT13=
PLAYORDER=
